<?xml version="1.0" encoding="utf-8"?>
<svg id="master-artboard" xmlns="http://www.w3.org/2000/svg" viewBox="0 0 228.4222412109375 99.51853942871094" width="228.4222412109375px" height="99.51853942871094px"><rect id="ee-background" x="0" y="0" width="228.4222412109375" height="99.51853942871094" style="fill: white; fill-opacity: 0; pointer-events: none;"/><g transform="matrix(0.192012220621109, 0, 0, 0.192012220621109, -138.13302421569824, -144.82664489746094)"><g>
	<g>
		<path class="st0" d="M1009.9,978c29-13,56.9-4.5,70,0c38,13,39.8,19.8,65,23.6c142.2,21.9,275.6,12.9,332-5.6&#10;&#9;&#9;&#9;c51.7-17,176.8-67.4,287-219" style="fill: none; stroke: rgb(48, 51, 49); stroke-width: 30; stroke-miterlimit: 10;"/>
		<path class="st0" d="M810.9,792c27,18,70,31,60.6,108c-0.3,2.1,0,4.3-0.1,6.5" style="fill: none; stroke: rgb(48, 51, 49); stroke-width: 30; stroke-miterlimit: 10;"/>
		<path class="st0" d="M1011.9,974c-1.1,1.4,0.7,16,2,21c8,30,26,42,41,53c19.7,14.5,34.6,23,53.5,38.8&#10;&#9;&#9;&#9;c72.3,60.6,166,103.7,301,123.7c90.8,13.4,304.4-16.3,474-96" style="fill: none; stroke: rgb(48, 51, 49); stroke-width: 30; stroke-miterlimit: 10;"/>
		<path class="st1" d="M1554.4,1102.5c93.5-36.7,205.3-96.6,295.7-171.1" style="fill: none; stroke: rgb(48, 51, 49); stroke-width: 17; stroke-miterlimit: 10;"/>
		<path class="st0" d="M1009.9,978c1-107-117.5-111.1-133-80c-2.6,5.2-8,16-10,21" style="fill: none; stroke: rgb(48, 51, 49); stroke-width: 30; stroke-miterlimit: 10;"/>
		<path class="st0" d="M1005.9,974c-74,38-156.6-25.6-127-81" style="fill: none; stroke: rgb(48, 51, 49); stroke-width: 30; stroke-miterlimit: 10;"/>
		<path class="st2" d="M1522.9,896" style="fill: none; stroke: rgb(0, 0, 0); stroke-width: 17; stroke-miterlimit: 10;"/>
		<path class="st0" d="M870.1,900.3c-28.8,11.8-50.7,35.3-123.2-15.3" style="fill: none; stroke: rgb(48, 51, 49); stroke-width: 30; stroke-miterlimit: 10;"/>
		
			<path d="M 836.200012 839.099976 A 56.5 16.700001 0 0 1 779.700012 855.799976 A 56.5 16.700001 0 0 1 723.200012 839.099976 A 56.5 16.700001 0 0 1 779.700012 822.399975 A 56.5 16.700001 0 0 1 836.200012 839.099976 Z" transform="matrix(0.5593 -0.829 0.829 0.5593 -351.9828 1016.1105)" class="st3" style="fill: rgb(0, 146, 69); stroke: rgb(48, 51, 49); stroke-width: 30; stroke-miterlimit: 10;"/>
		<linearGradient id="SVGID_1_" gradientUnits="userSpaceOnUse" x1="1205.8679" y1="1111.8905" x2="1235.2853" y2="1111.8905">
			<stop offset="1.082549e-07" style="stop-color:#3D3084"/>
			<stop offset="0.9387" style="stop-color:#BF1C80"/>
		</linearGradient>
		<path class="st4" d="M1210.4,1132.9L1210.4,1132.9c-4-1.9-5.6-6.7-3.7-10.7l13.4-27.6c1.9-4,6.7-5.6,10.7-3.7v0&#10;&#9;&#9;&#9;c4,1.9,5.6,6.7,3.7,10.7l-13.4,27.6C1219.1,1133.2,1214.3,1134.8,1210.4,1132.9z" style="fill: url('#SVGID_1_');"/>
		<linearGradient id="SVGID_2_" gradientUnits="userSpaceOnUse" x1="1308.4319" y1="1113.1594" x2="1269.6927" y2="1151.8984">
			<stop offset="0" style="stop-color:#E63423"/>
			<stop offset="0.7126" style="stop-color:#E6840E"/>
			<stop offset="0.9964" style="stop-color:#C56814"/>
		</linearGradient>
		<path class="st5" d="M1278.5,1159.8L1278.5,1159.8c-3.9-1.5-5.8-5.9-4.3-9.8l15.7-40.4c1.5-3.9,5.9-5.8,9.8-4.3l0,0&#10;&#9;&#9;&#9;c3.9,1.5,5.8,5.9,4.3,9.8l-15.7,40.4C1286.8,1159.4,1282.4,1161.3,1278.5,1159.8z" style="fill: url('#SVGID_2_');"/>
		<linearGradient id="SVGID_3_" gradientUnits="userSpaceOnUse" x1="1385.5437" y1="1130.4504" x2="1345.8256" y2="1170.1686">
			<stop offset="0" style="stop-color:#E63423"/>
			<stop offset="0.7126" style="stop-color:#E6840E"/>
			<stop offset="0.9964" style="stop-color:#C56814"/>
		</linearGradient>
		<path class="st6" d="M1357.9,1180.7L1357.9,1180.7c-4-1-6.5-5.2-5.4-9.2l11.9-46.2c1-4,5.2-6.5,9.2-5.4l0,0c4,1,6.5,5.2,5.4,9.2&#10;&#9;&#9;&#9;l-11.9,46.2C1366,1179.3,1361.9,1181.8,1357.9,1180.7z" style="fill: url('#SVGID_3_');"/>
		<linearGradient id="SVGID_4_" gradientUnits="userSpaceOnUse" x1="1432.2532" y1="1158.9689" x2="1452.8695" y2="1158.9689">
			<stop offset="1.082549e-07" style="stop-color:#3D3084"/>
			<stop offset="0.9387" style="stop-color:#BF1C80"/>
		</linearGradient>
		<path class="st7" d="M1439.6,1194.1L1439.6,1194.1c-4.4-0.4-7.7-4.2-7.3-8.6l4.6-54.2c0.4-4.4,4.2-7.7,8.6-7.3h0&#10;&#9;&#9;&#9;c4.4,0.4,7.7,4.2,7.3,8.6l-4.6,54.2C1447.9,1191.2,1444,1194.4,1439.6,1194.1z" style="fill: url('#SVGID_4_');"/>
		<linearGradient id="SVGID_5_" gradientUnits="userSpaceOnUse" x1="1590.5847" y1="1157.978" x2="1571.2898" y2="1177.2728">
			<stop offset="0" style="stop-color:#E63423"/>
			<stop offset="0.7126" style="stop-color:#E6840E"/>
			<stop offset="0.9964" style="stop-color:#C56814"/>
		</linearGradient>
		<path class="st8" d="M1583.5,1184.9L1583.5,1184.9c-4.4,0.7-8.4-2.4-9.1-6.7l-2.8-18.8c-0.7-4.4,2.4-8.4,6.7-9.1l0,0&#10;&#9;&#9;&#9;c4.4-0.7,8.4,2.4,9.1,6.7l2.8,18.8C1590.9,1180.2,1587.9,1184.3,1583.5,1184.9z" style="fill: url('#SVGID_5_');"/>
		<linearGradient id="SVGID_6_" gradientUnits="userSpaceOnUse" x1="1636.5415" y1="1152.3933" x2="1656.454" y2="1152.3933">
			<stop offset="1.082549e-07" style="stop-color:#3D3084"/>
			<stop offset="0.9387" style="stop-color:#BF1C80"/>
		</linearGradient>
		<path class="st9" d="M1649.6,1173.4L1649.6,1173.4c-4.4,0.7-8.4-2.4-9.1-6.7l-3.9-26.3c-0.7-4.4,2.4-8.4,6.7-9.1l0,0&#10;&#9;&#9;&#9;c4.4-0.7,8.4,2.4,9.1,6.7l3.9,26.3C1657,1168.7,1654,1172.8,1649.6,1173.4z" style="fill: url('#SVGID_6_');"/>
		<linearGradient id="SVGID_7_" gradientUnits="userSpaceOnUse" x1="1749.8792" y1="1115.9766" x2="1771.2899" y2="1115.9766">
			<stop offset="1.082549e-07" style="stop-color:#3D3084"/>
			<stop offset="0.9387" style="stop-color:#BF1C80"/>
		</linearGradient>
		<path class="st10" d="M1764.5,1142.1L1764.5,1142.1c-4.4,0.7-8.4-2.4-9.1-6.7l-5.4-36.4c-0.7-4.4,2.4-8.4,6.7-9.1l0,0&#10;&#9;&#9;&#9;c4.4-0.7,8.4,2.4,9.1,6.7l5.4,36.4C1771.9,1137.3,1768.8,1141.4,1764.5,1142.1z" style="fill: url('#SVGID_7_');"/>
		<linearGradient id="SVGID_8_" gradientUnits="userSpaceOnUse" x1="1719.3754" y1="1120.9349" x2="1693.7288" y2="1146.5815">
			<stop offset="0" style="stop-color:#E63423"/>
			<stop offset="0.7126" style="stop-color:#E6840E"/>
			<stop offset="0.9964" style="stop-color:#C56814"/>
		</linearGradient>
		<path class="st11" d="M1710.2,1158.5L1710.2,1158.5c-4.4,0.7-8.4-2.4-9.1-6.7l-5-33.7c-0.7-4.4,2.4-8.4,6.7-9.1l0,0&#10;&#9;&#9;&#9;c4.4-0.7,8.4,2.4,9.1,6.7l5,33.7C1717.6,1153.8,1714.6,1157.9,1710.2,1158.5z" style="fill: url('#SVGID_8_');"/>
		<linearGradient id="SVGID_9_" gradientUnits="userSpaceOnUse" x1="1847.5909" y1="1074.1576" x2="1870.1444" y2="1074.1576">
			<stop offset="1.082549e-07" style="stop-color:#3D3084"/>
			<stop offset="0.9387" style="stop-color:#BF1C80"/>
		</linearGradient>
		<path class="st12" d="M1863.3,1104.1L1863.3,1104.1c-4.4,0.7-8.4-2.4-9.1-6.7l-6.6-44c-0.7-4.4,2.4-8.4,6.7-9.1l0,0&#10;&#9;&#9;&#9;c4.4-0.7,8.4,2.4,9.1,6.7l6.6,44C1870.7,1099.4,1867.7,1103.4,1863.3,1104.1z" style="fill: url('#SVGID_9_');"/>
		<linearGradient id="SVGID_10_" gradientUnits="userSpaceOnUse" x1="1823.8667" y1="1081.2653" x2="1795.1193" y2="1110.0126">
			<stop offset="0" style="stop-color:#E63423"/>
			<stop offset="0.7126" style="stop-color:#E6840E"/>
			<stop offset="0.9964" style="stop-color:#C56814"/>
		</linearGradient>
		<path class="st13" d="M1813.7,1124L1813.7,1124c-4.4,0.7-8.4-2.4-9.1-6.7l-6.1-41c-0.7-4.4,2.4-8.4,6.7-9.1l0,0&#10;&#9;&#9;&#9;c4.4-0.7,8.4,2.4,9.1,6.7l6.1,41C1821.1,1119.3,1818.1,1123.4,1813.7,1124z" style="fill: url('#SVGID_10_');"/>
		<linearGradient id="SVGID_11_" gradientUnits="userSpaceOnUse" x1="1863.7947" y1="975.639" x2="1828.0752" y2="1011.3586">
			<stop offset="0" style="stop-color:#E63423"/>
			<stop offset="0.7126" style="stop-color:#E6840E"/>
			<stop offset="0.9964" style="stop-color:#C56814"/>
		</linearGradient>
		<path class="st14" d="M1851.4,1030.1L1851.4,1030.1c-4.4,0.7-8.4-2.4-9.1-6.7l-8.5-57.3c-0.7-4.4,2.4-8.4,6.7-9.1h0&#10;&#9;&#9;&#9;c4.4-0.7,8.4,2.4,9.1,6.7l8.5,57.3C1858.8,1025.4,1855.7,1029.4,1851.4,1030.1z" style="fill: url('#SVGID_11_');"/>
		
			<linearGradient id="SVGID_12_" gradientUnits="userSpaceOnUse" x1="1787.8544" y1="1019.8517" x2="1810.6329" y2="1019.8517" gradientTransform="matrix(1.0006 4.322009e-03 4.322009e-03 1.0291 -5.4555 -36.6729)">
			<stop offset="1.082549e-07" style="stop-color:#3D3084"/>
			<stop offset="0.9387" style="stop-color:#BF1C80"/>
		</linearGradient>
		<path class="st15" d="M1804,1052L1804,1052c-4.4,0.7-8.4-2.4-9.1-6.7l-7-47c-0.7-4.4,2.4-8.4,6.7-9.1h0c4.4-0.7,8.4,2.4,9.1,6.7&#10;&#9;&#9;&#9;l7,47C1811.4,1047.3,1808.4,1051.3,1804,1052z" style="fill: url('#SVGID_12_');"/>
		<linearGradient id="SVGID_13_" gradientUnits="userSpaceOnUse" x1="1762.2172" y1="1032.4733" x2="1735.9063" y2="1058.7842">
			<stop offset="0" style="stop-color:#E63423"/>
			<stop offset="0.7126" style="stop-color:#E6840E"/>
			<stop offset="0.9964" style="stop-color:#C56814"/>
		</linearGradient>
		<path class="st16" d="M1752.9,1071.2L1752.9,1071.2c-4.4,0.7-8.4-2.4-9.1-6.7l-5.2-35.2c-0.7-4.4,2.4-8.4,6.7-9.1h0&#10;&#9;&#9;&#9;c4.4-0.7,8.4,2.4,9.1,6.7l5.2,35.2C1760.2,1066.4,1757.2,1070.5,1752.9,1071.2z" style="fill: url('#SVGID_13_');"/>
		<linearGradient id="SVGID_14_" gradientUnits="userSpaceOnUse" x1="1687.2478" y1="1072.4342" x2="1706.5176" y2="1072.4342">
			<stop offset="1.082549e-07" style="stop-color:#3D3084"/>
			<stop offset="0.9387" style="stop-color:#BF1C80"/>
		</linearGradient>
		<path class="st17" d="M1699.4,1094.8L1699.4,1094.8c-4.4,0.5-8.4-2.7-8.8-7l-3.3-28.8c-0.5-4.4,2.7-8.4,7-8.8l0,0&#10;&#9;&#9;&#9;c4.4-0.5,8.4,2.7,8.8,7l3.3,28.8C1707,1090.3,1703.8,1094.3,1699.4,1094.8z" style="fill: url('#SVGID_14_');"/>
		<linearGradient id="SVGID_15_" gradientUnits="userSpaceOnUse" x1="1650.7828" y1="1088.4508" x2="1627.7402" y2="1111.4933">
			<stop offset="0" style="stop-color:#E63423"/>
			<stop offset="0.7126" style="stop-color:#E6840E"/>
			<stop offset="0.9964" style="stop-color:#C56814"/>
		</linearGradient>
		<path class="st18" d="M1642.5,1121.7L1642.5,1121.7c-4.4,0.7-8.4-2.4-9.1-6.7l-4.1-27.6c-0.7-4.4,2.4-8.4,6.7-9.1h0&#10;&#9;&#9;&#9;c4.4-0.7,8.4,2.4,9.1,6.7l4.1,27.6C1649.9,1116.9,1646.9,1121,1642.5,1121.7z" style="fill: url('#SVGID_15_');"/>
		<linearGradient id="SVGID_16_" gradientUnits="userSpaceOnUse" x1="1565.9021" y1="1125.3612" x2="1585.1116" y2="1125.3612">
			<stop offset="1.082549e-07" style="stop-color:#3D3084"/>
			<stop offset="0.9387" style="stop-color:#BF1C80"/>
		</linearGradient>
		<path class="st19" d="M1578.4,1144.7L1578.4,1144.7c-4.3,0.6-8.3-2.3-9-6.6l-3.4-23c-0.6-4.3,2.3-8.3,6.6-9l0,0&#10;&#9;&#9;&#9;c4.3-0.6,8.3,2.3,9,6.6l3.4,23C1585.7,1140,1582.7,1144,1578.4,1144.7z" style="fill: url('#SVGID_16_');"/>
		<linearGradient id="SVGID_17_" gradientUnits="userSpaceOnUse" x1="1524.4355" y1="1032.0472" x2="1552.7914" y2="1032.0472">
			<stop offset="1.082549e-07" style="stop-color:#3D3084"/>
			<stop offset="0.9387" style="stop-color:#BF1C80"/>
		</linearGradient>
		<path class="st20" d="M1546.6,1066.5L1546.6,1066.5c-4.3,1-8.6-1.7-9.6-6l-12.4-53.4c-1-4.3,1.7-8.6,6-9.6l0,0&#10;&#9;&#9;&#9;c4.3-1,8.6,1.7,9.6,6l12.4,53.4C1553.6,1061.2,1550.9,1065.5,1546.6,1066.5z" style="fill: url('#SVGID_17_');"/>
		
			<linearGradient id="SVGID_18_" gradientUnits="userSpaceOnUse" x1="1676.3292" y1="1513.4335" x2="1704.6851" y2="1513.4335" gradientTransform="matrix(0.9156 -0.402 0.402 0.9156 -437.6973 205.9177)">
			<stop offset="1.082549e-07" style="stop-color:#3D3084"/>
			<stop offset="0.9387" style="stop-color:#BF1C80"/>
		</linearGradient>
		<path class="st21" d="M1739.8,940.4L1739.8,940.4c-3.5,2.6-8.6,1.9-11.2-1.6l-32.8-43.9c-2.6-3.5-1.9-8.6,1.6-11.2l0,0&#10;&#9;&#9;&#9;c3.5-2.6,8.6-1.9,11.2,1.6l32.8,43.9C1744,932.7,1743.3,937.8,1739.8,940.4z" style="fill: url('#SVGID_18_');"/>
		
			<linearGradient id="SVGID_19_" gradientUnits="userSpaceOnUse" x1="1736.9622" y1="1564.6085" x2="1765.318" y2="1564.6085" gradientTransform="matrix(0.89 -0.4559 0.4559 0.89 -488.2761 253.9014)">
			<stop offset="1.082549e-07" style="stop-color:#3D3084"/>
			<stop offset="0.9387" style="stop-color:#BF1C80"/>
		</linearGradient>
		<path class="st22" d="M1806.4,875.1L1806.4,875.1c-3.4,2.8-8.4,2.4-11.3-1l-35.3-41.9c-2.8-3.4-2.4-8.4,1-11.3l0,0&#10;&#9;&#9;&#9;c3.4-2.8,8.4-2.4,11.3,1l35.3,41.9C1810.2,867.2,1809.8,872.2,1806.4,875.1z" style="fill: url('#SVGID_19_');"/>
		<linearGradient id="SVGID_20_" gradientUnits="userSpaceOnUse" x1="1615.6603" y1="985.5594" x2="1590.5784" y2="1010.6412">
			<stop offset="0" style="stop-color:#E63423"/>
			<stop offset="0.7126" style="stop-color:#E6840E"/>
			<stop offset="0.9964" style="stop-color:#C56814"/>
		</linearGradient>
		<path class="st23" d="M1618.1,1030.8L1618.1,1030.8c-4,1.8-8.8,0.1-10.6-3.9l-23.4-50.9c-1.8-4-0.1-8.8,3.9-10.6v0&#10;&#9;&#9;&#9;c4-1.8,8.8-0.1,10.6,3.9l23.4,50.9C1623.9,1024.2,1622.2,1029,1618.1,1030.8z" style="fill: url('#SVGID_20_');"/>
		
			<linearGradient id="SVGID_21_" gradientUnits="userSpaceOnUse" x1="1784.8381" y1="1227.8063" x2="1759.7562" y2="1252.8882" gradientTransform="matrix(0.9711 -0.2387 0.2387 0.9711 -265.0541 99.7488)">
			<stop offset="0" style="stop-color:#E63423"/>
			<stop offset="0.7126" style="stop-color:#E6840E"/>
			<stop offset="0.9964" style="stop-color:#C56814"/>
		</linearGradient>
		<path class="st24" d="M1774.5,909.3L1774.5,909.3c-3.5,2.7-8.5,2.2-11.2-1.3l-34.8-43.8c-2.7-3.5-2.2-8.5,1.3-11.2v0&#10;&#9;&#9;&#9;c3.5-2.7,8.5-2.2,11.2,1.3l34.8,43.8C1778.6,901.5,1778,906.5,1774.5,909.3z" style="fill: url('#SVGID_21_');"/>
		<linearGradient id="SVGID_22_" gradientUnits="userSpaceOnUse" x1="1477.3525" y1="1038.1742" x2="1440.5016" y2="1075.0251">
			<stop offset="0" style="stop-color:#E63423"/>
			<stop offset="0.7126" style="stop-color:#E6840E"/>
			<stop offset="0.9964" style="stop-color:#C56814"/>
		</linearGradient>
		<path class="st25" d="M1461.3,1092L1461.3,1092c-4.4,0.3-8.2-3-8.5-7.4l-3.7-54.8c-0.3-4.4,3-8.2,7.4-8.5l0,0&#10;&#9;&#9;&#9;c4.4-0.3,8.2,3,8.5,7.4l3.7,54.8C1469.1,1087.9,1465.7,1091.7,1461.3,1092z" style="fill: url('#SVGID_22_');"/>
		<linearGradient id="SVGID_23_" gradientUnits="userSpaceOnUse" x1="1371.9702" y1="1063.1797" x2="1390.8331" y2="1063.1797">
			<stop offset="1.082549e-07" style="stop-color:#3D3084"/>
			<stop offset="0.9387" style="stop-color:#BF1C80"/>
		</linearGradient>
		<path class="st26" d="M1379.5,1094.5L1379.5,1094.5c-4.4-0.3-7.8-4.1-7.5-8.5l2.9-46.6c0.3-4.4,4.1-7.8,8.5-7.5l0,0&#10;&#9;&#9;&#9;c4.4,0.3,7.8,4.1,7.5,8.5l-2.9,46.6C1387.7,1091.4,1383.9,1094.7,1379.5,1094.5z" style="fill: url('#SVGID_23_');"/>
		<linearGradient id="SVGID_24_" gradientUnits="userSpaceOnUse" x1="1295.6953" y1="1059.3381" x2="1316.1495" y2="1059.3381">
			<stop offset="1.082549e-07" style="stop-color:#3D3084"/>
			<stop offset="0.9387" style="stop-color:#BF1C80"/>
		</linearGradient>
		<path class="st27" d="M1302.8,1088L1302.8,1088c-4.4-0.5-7.6-4.4-7.1-8.8l4.5-41.4c0.5-4.4,4.4-7.6,8.8-7.1l0,0&#10;&#9;&#9;&#9;c4.4,0.5,7.6,4.4,7.1,8.8l-4.5,41.4C1311.2,1085.3,1307.2,1088.5,1302.8,1088z" style="fill: url('#SVGID_24_');"/>
		<linearGradient id="SVGID_25_" gradientUnits="userSpaceOnUse" x1="1253.6595" y1="1037.9489" x2="1225.6193" y2="1065.9893">
			<stop offset="0" style="stop-color:#E63423"/>
			<stop offset="0.7126" style="stop-color:#E6840E"/>
			<stop offset="0.9964" style="stop-color:#C56814"/>
		</linearGradient>
		<path class="st28" d="M1237.2,1075L1237.2,1075c-4.4-0.5-7.6-4.4-7.1-8.8l3.2-30.2c0.5-4.4,4.4-7.6,8.8-7.1v0&#10;&#9;&#9;&#9;c4.4,0.5,7.6,4.4,7.1,8.8l-3.2,30.2C1245.5,1072.3,1241.6,1075.5,1237.2,1075z" style="fill: url('#SVGID_25_');"/>
		<path class="st29" d="M1152.8,1048.2c-28.6,52.3-68.4,85.7-88.7,74.6c-8.8-4.8-12.6-17.3-11.6-34.2c0.9-15.2,6.2-33.6,14.5-53.6&#10;&#9;&#9;&#9;c3.6-8.8,8.1-18,13-27c3.9-7.1,7.1-14,11.3-20.3c6.2-9.3,14.1-17.3,20.7-24.7c7.4-8.4,13.5-15.8,20.6-21&#10;&#9;&#9;&#9;c13.7-10,26.3-13.6,35.2-8.8C1188.1,944.4,1181.4,995.8,1152.8,1048.2z" style="fill: rgb(116, 187, 49);"/>
		<path class="st29" d="M1668.3,900.9c21.5,41,25.9,81,10,89.3c-5.4,2.8-16-0.5-27.7-9.5c-8.2-6.3-15.8-15.2-23.7-26.8&#10;&#9;&#9;&#9;c-5.4-7.9-12.2-16.4-17-26c-4.7-9.5-8.7-18.9-11.7-27.7c-9.6-28.6-9.8-52.1,2.3-58.5C1616.5,833.5,1646.8,859.9,1668.3,900.9z" style="fill: rgb(116, 187, 49);"/>
		<path class="st29" d="M1546,1176.8c3.1,46.2-8.9,84.6-26.9,85.8c-7.8,0.5-15.5-6.1-21.9-17.6c-3-5.3-4.9-11.9-7.3-19.1&#10;&#9;&#9;&#9;c-1.9-5.8-4.3-11.9-5.6-18.7c-1.6-8.2-0.8-17.2-1.4-26.3c-1.7-24.6-1-46.8,4.6-62.6c4.9-13.8,12-22.4,20.3-23&#10;&#9;&#9;&#9;C1525.8,1094.2,1542.8,1130.7,1546,1176.8z" style="fill: rgb(116, 187, 49);"/>
		
			<path d="M 818.000011 838.299988 A 41.799999 12.5 0 0 1 776.200012 850.799988 A 41.799999 12.5 0 0 1 734.400013 838.299988 A 41.799999 12.5 0 0 1 776.200012 825.799988 A 41.799999 12.5 0 0 1 818.000011 838.299988 Z" transform="matrix(0.5357 -0.8444 0.8444 0.5357 -347.4788 1044.6238)" class="st29" style="fill: rgb(116, 187, 49);"/>
		<path class="st30" d="M1126.4,1001.3" style="fill: none; stroke: rgb(0, 0, 0); stroke-width: 30; stroke-miterlimit: 10;"/>
		<path class="st30" d="M1077.5,989.7" style="fill: none; stroke: rgb(0, 0, 0); stroke-width: 30; stroke-miterlimit: 10;"/>
		<path class="st30" d="M1135.4,1003.3" style="fill: none; stroke: rgb(0, 0, 0); stroke-width: 30; stroke-miterlimit: 10;"/>
		<path class="st31" d="M1516.4,1171.1c-2.1-31-15.5-60.9-22.7-60.7c-7.6,0.2-15.2,37.6-12.7,70.8c0.4,5.5,1.1,11.2,1.9,16.8l34.2-2&#10;&#9;&#9;&#9;C1517.2,1188.5,1517,1180.2,1516.4,1171.1z" style="fill: rgb(7, 107, 73);"/>
		<path class="st31" d="M1501.8,1248.2c4.2-0.4,8.9-7.5,12-21.2l-24.1,0.9C1493.6,1240.2,1498.1,1248.6,1501.8,1248.2z" style="fill: rgb(7, 107, 73);"/>
		<path class="st32" d="M1482.9,1198l-17,1l20,29l3.8-0.1l24.1-0.9c1.8-8,3-18.3,3.3-31L1482.9,1198z" style="fill: rgb(48, 51, 49);"/>
		<path class="st31" d="M1593.7,859.2c-5.8,2.8-0.8,29.9,10.3,56l27.7-22C1617.4,871.8,1599.2,856.5,1593.7,859.2z" style="fill: rgb(7, 107, 73);"/>
		<path class="st31" d="M1646.3,920.6l-28.4,21.2c3.1,5,6.4,9.8,9.7,14.3c12.2,16.6,24.6,28.5,29.1,26&#10;&#9;&#9;&#9;C1663,978.5,1662.8,956.9,1646.3,920.6z" style="fill: rgb(7, 107, 73);"/>
		<path class="st33" d="M1645,918l0.6,1.2c-0.9-2.1-1.9-4.1-3-6.3c0.8,1.8,1.7,3.8,2.1,4.5C1644.9,917.6,1644.9,917.8,1645,918z" style="fill: rgb(0, 104, 55);"/>
		<path class="st32" d="M1604,915.2l-12.9,10.2l23.9,18.5l3-2.2c-2.6-4.2-5.1-8.4-7.3-12.6C1608.2,924.6,1606,919.9,1604,915.2z" style="fill: rgb(48, 51, 49);"/>
		<path class="st32" d="M1645.7,919.2l-0.6-1.2c-0.1-0.2-0.2-0.4-0.3-0.6c-0.3-0.7-1.2-2.7-2.1-4.5c-1.2-2.4-2.4-4.9-3.7-7.4&#10;&#9;&#9;&#9;c-2.2-4.3-4.7-8.4-7.3-12.3l-27.7,22c2,4.7,4.2,9.4,6.6,13.9c2.3,4.2,4.7,8.5,7.3,12.6l28.4-21.2&#10;&#9;&#9;&#9;C1646.1,920.1,1645.9,919.7,1645.7,919.2z" style="fill: rgb(48, 51, 49);"/>
		<path d="M 1778.900024 777.200012 A 15 15 0 0 1 1763.900024 792.200012 A 15 15 0 0 1 1748.900024 777.200012 A 15 15 0 0 1 1763.900024 762.200012 A 15 15 0 0 1 1778.900024 777.200012 Z" class="st32" style="fill: rgb(48, 51, 49);"/>
		<path d="M 1896.900024 1115.199951 A 15 15 0 0 1 1881.900024 1130.199951 A 15 15 0 0 1 1866.900024 1115.199951 A 15 15 0 0 1 1881.900024 1100.199951 A 15 15 0 0 1 1896.900024 1115.199951 Z" class="st32" style="fill: rgb(48, 51, 49);"/>
		<path d="M 1563.000025 1102.5 A 8.6 8.6 0 0 1 1554.400024 1111.1 A 8.6 8.6 0 0 1 1545.800024 1102.5 A 8.6 8.6 0 0 1 1554.400024 1093.9 A 8.6 8.6 0 0 1 1563.000025 1102.5 Z" class="st32" style="fill: rgb(48, 51, 49);"/>
		<path d="M 1858.099976 931.900024 A 8.5 8.5 0 0 1 1849.599976 940.400024 A 8.5 8.5 0 0 1 1841.099976 931.900024 A 8.5 8.5 0 0 1 1849.599976 923.400024 A 8.5 8.5 0 0 1 1858.099976 931.900024 Z" class="st32" style="fill: rgb(48, 51, 49);"/>
		<path d="M 1603.900024 917 H 1617.900024 V 942 H 1603.900024 V 917 Z" class="st32" style="fill: rgb(48, 51, 49);"/>
	</g>
	<path class="st0" d="M1134,1000" style="fill: none; stroke: rgb(48, 51, 49); stroke-width: 30; stroke-miterlimit: 10;"/>
	<path class="st0" d="M1082.9,981" style="fill: none; stroke: rgb(48, 51, 49); stroke-width: 30; stroke-miterlimit: 10;"/>
	<path class="st0" d="M1057.9,1046" style="fill: none; stroke: rgb(48, 51, 49); stroke-width: 30; stroke-miterlimit: 10;"/>
	<path class="st31" d="M1142,939.7c-5.5-3.3-21.9,10.7-38.4,31.3l35.8,14.9C1146.4,962.6,1147.4,942.9,1142,939.7z" style="fill: rgb(7, 107, 73);"/>
	<path class="st31" d="M1055.3,1095.1c4.4,2.2,13.1-1.2,24.4-11.5l-24-16.7C1051.8,1081.9,1051.2,1093.1,1055.3,1095.1z" style="fill: rgb(7, 107, 73);"/>
	<path class="st31" d="M1128.2,1014.7l-42.3-18.5c-2.4,3.8-4.7,7.7-6.8,11.7c-5,9.3-9.7,19.4-13.6,29.3l36.1,21.1&#10;&#9;&#9;c7.3-10,15.1-22.3,23.1-36.8C1125.9,1019.2,1127.1,1016.9,1128.2,1014.7z" style="fill: rgb(7, 107, 73);"/>
	<path class="st32" d="M1065.5,1037.1l-1.3-0.8c-0.2-0.1-0.5,0-0.6,0.2l-14.2,24.6c-0.4,0.7-0.2,1.5,0.5,1.9l5.7,4l24,16.7&#10;&#9;&#9;c6.6-6,14-14.4,22-25.4L1065.5,1037.1z" style="fill: rgb(48, 51, 49);"/>
	<path d="M 1098.9000244140625 969 L 1097.9000244140625 969 L 1097.9000244140625 969 L 1098.9000244140625 969 Z" class="st34" style="fill: rgb(77, 77, 77);"/>
	<path class="st32" d="M1103.6,971l-4.7-2c-2,0-1.9-0.2-2,0l-13.5,24c-0.4,0.7-3.1,0.6-2.5,1l4.9,2.2l42.3,18.5&#10;&#9;&#9;c4.7-9.6,8.5-19.5,11.3-28.9L1103.6,971z" style="fill: rgb(48, 51, 49);"/>
</g><g class="st35" style="display: none;">
	<path class="st36" d="M419.9,1454.8c3.2,4.2,4.8,9.3,4.8,15.3c0,8.6-3.3,15.2-10,19.8c-6.7,4.6-16.4,6.9-29.2,6.9h-50.7v-98h47.9&#10;&#9;&#9;c11.9,0,21.1,2.3,27.5,6.9c6.4,4.6,9.6,10.8,9.6,18.6c0,4.8-1.1,9-3.4,12.7c-2.3,3.7-5.5,6.7-9.6,8.8&#10;&#9;&#9;C412.3,1447.7,416.7,1450.7,419.9,1454.8z M357.3,1416v23.1h22.5c5.6,0,9.8-1,12.7-2.9c2.9-2,4.3-4.9,4.3-8.7&#10;&#9;&#9;c0-3.8-1.4-6.7-4.3-8.6c-2.9-1.9-7.1-2.9-12.7-2.9H357.3z M397.3,1476.9c3-2,4.6-5,4.6-9.1c0-8.1-6-12.2-18.1-12.2h-26.5v24.2h26.5&#10;&#9;&#9;C389.7,1479.8,394.2,1478.8,397.3,1476.9z" style="display: inline; fill: rgb(48, 51, 49);"/>
	<path class="st36" d="M455.4,1407.6c-2.5-2.3-3.8-5.2-3.8-8.7c0-3.5,1.3-6.3,3.8-8.7c2.5-2.3,5.8-3.5,9.8-3.5c4,0,7.3,1.1,9.8,3.4&#10;&#9;&#9;c2.5,2.2,3.8,5,3.8,8.4c0,3.6-1.3,6.7-3.8,9s-5.8,3.6-9.8,3.6C461.2,1411.1,458,1409.9,455.4,1407.6z M454.3,1421.6h21.8v75.3&#10;&#9;&#9;h-21.8V1421.6z" style="display: inline; fill: rgb(48, 51, 49);"/>
	<path class="st36" d="M524.9,1493c-6.3-3.3-11.2-7.9-14.8-13.8c-3.5-5.9-5.3-12.6-5.3-20c0-7.5,1.8-14.1,5.3-20&#10;&#9;&#9;c3.5-5.9,8.5-10.5,14.8-13.8c6.3-3.3,13.4-5,21.4-5c7.9,0,15,1.7,21.3,5c6.3,3.3,11.2,7.9,14.7,13.8c3.5,5.9,5.3,12.6,5.3,20&#10;&#9;&#9;c0,7.5-1.8,14.1-5.3,20c-3.5,5.9-8.4,10.5-14.7,13.8c-6.3,3.3-13.3,5-21.3,5C538.4,1498,531.2,1496.3,524.9,1493z M560.1,1474.4&#10;&#9;&#9;c3.6-3.8,5.4-8.8,5.4-15.2c0-6.3-1.8-11.4-5.4-15.2c-3.6-3.8-8.2-5.7-13.8-5.7s-10.2,1.9-13.9,5.7c-3.6,3.8-5.5,8.8-5.5,15.2&#10;&#9;&#9;c0,6.3,1.8,11.4,5.5,15.2c3.6,3.8,8.3,5.7,13.9,5.7S556.5,1478.2,560.1,1474.4z" style="display: inline; fill: rgb(48, 51, 49);"/>
	<path class="st36" d="M689.5,1465.4h-57c1,4.7,3.5,8.4,7.3,11.1c3.8,2.7,8.6,4.1,14.3,4.1c3.9,0,7.4-0.6,10.4-1.8&#10;&#9;&#9;c3-1.2,5.9-3,8.5-5.5l11.6,12.6c-7.1,8.1-17.5,12.2-31.1,12.2c-8.5,0-16-1.7-22.5-5c-6.5-3.3-11.6-7.9-15.1-13.8&#10;&#9;&#9;c-3.5-5.9-5.3-12.6-5.3-20c0-7.4,1.8-14,5.3-20c3.5-5.9,8.3-10.5,14.4-13.9c6.1-3.3,13-5,20.5-5c7.4,0,14,1.6,20,4.8&#10;&#9;&#9;c6,3.2,10.7,7.7,14.1,13.6c3.4,5.9,5.1,12.8,5.1,20.7C689.9,1459.8,689.8,1461.7,689.5,1465.4z M638.4,1441.2&#10;&#9;&#9;c-3.4,2.8-5.4,6.6-6.2,11.5h37.1c-0.7-4.8-2.8-8.6-6.2-11.4c-3.4-2.8-7.5-4.3-12.3-4.3C645.9,1437,641.8,1438.4,638.4,1441.2z" style="display: inline; fill: rgb(48, 51, 49);"/>
	<path class="st36" d="M786.9,1428.8c5.7,5.6,8.6,13.9,8.6,24.9v43.1h-21.8v-39.8c0-6-1.3-10.4-3.9-13.4c-2.6-2.9-6.4-4.4-11.3-4.4&#10;&#9;&#9;c-5.5,0-9.9,1.7-13.2,5.1c-3.3,3.4-4.9,8.5-4.9,15.2v37.2h-21.8v-75.3h20.9v8.8c2.9-3.2,6.5-5.6,10.8-7.3c4.3-1.7,9-2.6,14.1-2.6&#10;&#9;&#9;C773.6,1420.4,781.1,1423.2,786.9,1428.8z" style="display: inline; fill: rgb(48, 51, 49);"/>
	<path class="st36" d="M907.8,1421.6v62.7c0,13.8-3.6,24.1-10.8,30.8c-7.2,6.7-17.7,10.1-31.5,10.1c-7.3,0-14.2-0.9-20.7-2.7&#10;&#9;&#9;c-6.5-1.8-11.9-4.3-16.2-7.7l8.7-15.7c3.2,2.6,7.2,4.7,12,6.2c4.9,1.5,9.7,2.3,14.6,2.3c7.6,0,13.1-1.7,16.7-5.1&#10;&#9;&#9;c3.6-3.4,5.4-8.6,5.4-15.5v-3.2c-5.7,6.3-13.6,9.4-23.8,9.4c-6.9,0-13.2-1.5-19-4.6c-5.7-3-10.3-7.3-13.6-12.8&#10;&#9;&#9;c-3.4-5.5-5-11.9-5-19c0-7.2,1.7-13.5,5-19c3.4-5.5,7.9-9.8,13.6-12.8c5.7-3,12.1-4.6,19-4.6c10.9,0,19.2,3.6,24.9,10.8v-9.7H907.8&#10;&#9;&#9;z M880.7,1470.2c3.7-3.4,5.5-7.9,5.5-13.4c0-5.5-1.8-10-5.5-13.4c-3.7-3.4-8.4-5.1-14.2-5.1c-5.8,0-10.5,1.7-14.3,5.1&#10;&#9;&#9;c-3.7,3.4-5.6,7.9-5.6,13.4c0,5.5,1.9,10,5.6,13.4c3.7,3.4,8.5,5.1,14.3,5.1C872.3,1475.3,877,1473.6,880.7,1470.2z" style="display: inline; fill: rgb(48, 51, 49);"/>
	<path class="st36" d="M943.2,1407.6c-2.5-2.3-3.8-5.2-3.8-8.7c0-3.5,1.3-6.3,3.8-8.7c2.5-2.3,5.8-3.5,9.8-3.5c4,0,7.3,1.1,9.8,3.4&#10;&#9;&#9;c2.5,2.2,3.8,5,3.8,8.4c0,3.6-1.3,6.7-3.8,9c-2.5,2.4-5.8,3.6-9.8,3.6C949,1411.1,945.7,1409.9,943.2,1407.6z M942.1,1421.6h21.8&#10;&#9;&#9;v75.3h-21.8V1421.6z" style="display: inline; fill: rgb(48, 51, 49);"/>
	<path class="st36" d="M1066.6,1428.8c5.7,5.6,8.6,13.9,8.6,24.9v43.1h-21.8v-39.8c0-6-1.3-10.4-3.9-13.4c-2.6-2.9-6.4-4.4-11.3-4.4&#10;&#9;&#9;c-5.5,0-9.9,1.7-13.2,5.1c-3.3,3.4-4.9,8.5-4.9,15.2v37.2h-21.8v-75.3h20.9v8.8c2.9-3.2,6.5-5.6,10.8-7.3c4.3-1.7,9-2.6,14.1-2.6&#10;&#9;&#9;C1053.3,1420.4,1060.9,1423.2,1066.6,1428.8z" style="display: inline; fill: rgb(48, 51, 49);"/>
	<path class="st36" d="M1183.2,1465.4h-57c1,4.7,3.5,8.4,7.3,11.1c3.8,2.7,8.6,4.1,14.3,4.1c3.9,0,7.4-0.6,10.4-1.8&#10;&#9;&#9;c3-1.2,5.9-3,8.5-5.5l11.6,12.6c-7.1,8.1-17.5,12.2-31.1,12.2c-8.5,0-16-1.7-22.5-5c-6.5-3.3-11.6-7.9-15.1-13.8&#10;&#9;&#9;c-3.5-5.9-5.3-12.6-5.3-20c0-7.4,1.8-14,5.3-20c3.5-5.9,8.3-10.5,14.4-13.9c6.1-3.3,12.9-5,20.5-5c7.4,0,14,1.6,20,4.8&#10;&#9;&#9;c6,3.2,10.7,7.7,14.1,13.6c3.4,5.9,5.1,12.8,5.1,20.7C1183.6,1459.8,1183.4,1461.7,1183.2,1465.4z M1132.1,1441.2&#10;&#9;&#9;c-3.4,2.8-5.4,6.6-6.2,11.5h37.1c-0.7-4.8-2.8-8.6-6.2-11.4c-3.4-2.8-7.5-4.3-12.3-4.3C1139.6,1437,1135.4,1438.4,1132.1,1441.2z" style="display: inline; fill: rgb(48, 51, 49);"/>
	<path class="st36" d="M1285.5,1465.4h-57c1,4.7,3.5,8.4,7.3,11.1c3.8,2.7,8.6,4.1,14.3,4.1c3.9,0,7.4-0.6,10.4-1.8&#10;&#9;&#9;c3-1.2,5.9-3,8.5-5.5l11.6,12.6c-7.1,8.1-17.5,12.2-31.1,12.2c-8.5,0-16-1.7-22.5-5c-6.5-3.3-11.6-7.9-15.1-13.8&#10;&#9;&#9;c-3.5-5.9-5.3-12.6-5.3-20c0-7.4,1.8-14,5.3-20c3.5-5.9,8.3-10.5,14.4-13.9c6.1-3.3,12.9-5,20.5-5c7.4,0,14,1.6,20,4.8&#10;&#9;&#9;c6,3.2,10.7,7.7,14.1,13.6c3.4,5.9,5.1,12.8,5.1,20.7C1285.9,1459.8,1285.8,1461.7,1285.5,1465.4z M1234.4,1441.2&#10;&#9;&#9;c-3.4,2.8-5.4,6.6-6.2,11.5h37.1c-0.7-4.8-2.8-8.6-6.2-11.4c-3.4-2.8-7.5-4.3-12.3-4.3C1241.9,1437,1237.8,1438.4,1234.4,1441.2z" style="display: inline; fill: rgb(48, 51, 49);"/>
	<path class="st36" d="M1345.9,1423.2c4.4-1.9,9.5-2.8,15.3-2.8v20.2c-2.4-0.2-4.1-0.3-4.9-0.3c-6.3,0-11.2,1.8-14.7,5.3&#10;&#9;&#9;c-3.5,3.5-5.3,8.8-5.3,15.8v35.6h-21.8v-75.3h20.9v9.9C1337.9,1427.9,1341.5,1425.1,1345.9,1423.2z" style="display: inline; fill: rgb(48, 51, 49);"/>
	<path class="st36" d="M1389.4,1407.6c-2.5-2.3-3.8-5.2-3.8-8.7c0-3.5,1.3-6.3,3.8-8.7c2.5-2.3,5.8-3.5,9.8-3.5c4,0,7.3,1.1,9.8,3.4&#10;&#9;&#9;c2.5,2.2,3.8,5,3.8,8.4c0,3.6-1.3,6.7-3.8,9c-2.5,2.4-5.8,3.6-9.8,3.6C1395.2,1411.1,1391.9,1409.9,1389.4,1407.6z M1388.3,1421.6&#10;&#9;&#9;h21.8v75.3h-21.8V1421.6z" style="display: inline; fill: rgb(48, 51, 49);"/>
	<path class="st36" d="M1512.8,1428.8c5.7,5.6,8.6,13.9,8.6,24.9v43.1h-21.8v-39.8c0-6-1.3-10.4-3.9-13.4c-2.6-2.9-6.4-4.4-11.3-4.4&#10;&#9;&#9;c-5.5,0-9.9,1.7-13.2,5.1c-3.3,3.4-4.9,8.5-4.9,15.2v37.2h-21.8v-75.3h20.9v8.8c2.9-3.2,6.5-5.6,10.8-7.3c4.3-1.7,9-2.6,14.1-2.6&#10;&#9;&#9;C1499.5,1420.4,1507,1423.2,1512.8,1428.8z" style="display: inline; fill: rgb(48, 51, 49);"/>
	<path class="st36" d="M1633.7,1421.6v62.7c0,13.8-3.6,24.1-10.8,30.8c-7.2,6.7-17.7,10.1-31.5,10.1c-7.3,0-14.2-0.9-20.7-2.7&#10;&#9;&#9;c-6.5-1.8-11.9-4.3-16.2-7.7l8.7-15.7c3.2,2.6,7.2,4.7,12,6.2c4.9,1.5,9.7,2.3,14.6,2.3c7.6,0,13.1-1.7,16.7-5.1&#10;&#9;&#9;c3.6-3.4,5.4-8.6,5.4-15.5v-3.2c-5.7,6.3-13.6,9.4-23.8,9.4c-6.9,0-13.2-1.5-19-4.6c-5.7-3-10.3-7.3-13.7-12.8&#10;&#9;&#9;c-3.4-5.5-5-11.9-5-19c0-7.2,1.7-13.5,5-19c3.4-5.5,7.9-9.8,13.7-12.8c5.7-3,12.1-4.6,19-4.6c10.9,0,19.2,3.6,24.9,10.8v-9.7&#10;&#9;&#9;H1633.7z M1606.6,1470.2c3.7-3.4,5.5-7.9,5.5-13.4c0-5.5-1.8-10-5.5-13.4c-3.7-3.4-8.4-5.1-14.2-5.1c-5.8,0-10.5,1.7-14.3,5.1&#10;&#9;&#9;c-3.7,3.4-5.6,7.9-5.6,13.4c0,5.5,1.9,10,5.6,13.4c3.7,3.4,8.5,5.1,14.3,5.1C1598.2,1475.3,1602.9,1473.6,1606.6,1470.2z" style="display: inline; fill: rgb(48, 51, 49);"/>
	<path class="st37" d="M1742.9,1492c-8.1-4.3-14.4-10.4-19-18.1c-4.6-7.7-6.9-16.4-6.9-26.1c0-9.7,2.3-18.4,6.9-26.1&#10;&#9;&#9;c4.6-7.7,11-13.7,19-18.1c8.1-4.3,17.2-6.5,27.2-6.5c8.5,0,16.2,1.5,23,4.5c6.9,3,12.6,7.3,17.3,12.9l-14.6,13.4&#10;&#9;&#9;c-6.6-7.7-14.8-11.5-24.6-11.5c-6.1,0-11.5,1.3-16.2,4s-8.5,6.4-11.1,11.1s-4,10.2-4,16.2c0,6.1,1.3,11.5,4,16.2s6.4,8.5,11.1,11.1&#10;&#9;&#9;s10.2,4,16.2,4c9.8,0,18-3.9,24.6-11.6l14.6,13.4c-4.7,5.7-10.5,10-17.4,13c-6.9,3-14.6,4.5-23.1,4.5&#10;&#9;&#9;C1760,1498.6,1751,1496.4,1742.9,1492z" style="display: inline; fill: rgb(7, 107, 73);"/>
	<path class="st37" d="M1838.2,1393h21.8v103.9h-21.8V1393z" style="display: inline; fill: rgb(7, 107, 73);"/>
	<path class="st37" d="M1951.6,1428.8c6.3,5.6,9.4,13.9,9.4,25.1v43h-20.4v-9.4c-4.1,7-11.8,10.5-23,10.5c-5.8,0-10.8-1-15.1-2.9&#10;&#9;&#9;c-4.2-2-7.5-4.7-9.7-8.1c-2.2-3.5-3.4-7.4-3.4-11.8c0-7,2.6-12.5,7.9-16.5c5.3-4,13.4-6,24.4-6h17.4c0-4.8-1.4-8.4-4.3-11&#10;&#9;&#9;c-2.9-2.6-7.2-3.8-13-3.8c-4,0-8,0.6-11.8,1.9c-3.9,1.3-7.2,3-9.9,5.1l-7.8-15.3c4.1-2.9,9-5.1,14.8-6.7c5.7-1.6,11.6-2.4,17.7-2.4&#10;&#9;&#9;C1936.4,1420.4,1945.4,1423.2,1951.6,1428.8z M1933,1480.7c2.9-1.7,4.9-4.3,6.2-7.6v-7.7h-15c-9,0-13.4,2.9-13.4,8.8&#10;&#9;&#9;c0,2.8,1.1,5,3.3,6.6c2.2,1.6,5.2,2.5,9,2.5C1926.8,1483.3,1930.1,1482.4,1933,1480.7z" style="display: inline; fill: rgb(7, 107, 73);"/>
	<path class="st37" d="M2026.2,1423.2c4.4-1.9,9.5-2.8,15.3-2.8v20.2c-2.4-0.2-4.1-0.3-4.9-0.3c-6.3,0-11.2,1.8-14.7,5.3&#10;&#9;&#9;c-3.5,3.5-5.3,8.8-5.3,15.8v35.6h-21.8v-75.3h20.9v9.9C2018.2,1427.9,2021.7,1425.1,2026.2,1423.2z" style="display: inline; fill: rgb(7, 107, 73);"/>
	<path class="st37" d="M2069.6,1407.6c-2.5-2.3-3.8-5.2-3.8-8.7c0-3.5,1.3-6.3,3.8-8.7c2.5-2.3,5.8-3.5,9.8-3.5c4,0,7.3,1.1,9.8,3.4&#10;&#9;&#9;c2.5,2.2,3.8,5,3.8,8.4c0,3.6-1.3,6.7-3.8,9c-2.5,2.4-5.8,3.6-9.8,3.6C2075.4,1411.1,2072.1,1409.9,2069.6,1407.6z M2068.5,1421.6&#10;&#9;&#9;h21.8v75.3h-21.8V1421.6z" style="display: inline; fill: rgb(7, 107, 73);"/>
	<path class="st37" d="M2139.1,1493c-6.3-3.3-11.2-7.9-14.8-13.8c-3.5-5.9-5.3-12.6-5.3-20c0-7.5,1.8-14.1,5.3-20&#10;&#9;&#9;c3.5-5.9,8.5-10.5,14.8-13.8c6.3-3.3,13.4-5,21.3-5c7.9,0,15,1.7,21.3,5c6.3,3.3,11.2,7.9,14.7,13.8c3.5,5.9,5.3,12.6,5.3,20&#10;&#9;&#9;c0,7.5-1.8,14.1-5.3,20c-3.5,5.9-8.4,10.5-14.7,13.8c-6.3,3.3-13.3,5-21.3,5C2152.6,1498,2145.4,1496.3,2139.1,1493z&#10;&#9;&#9; M2174.3,1474.4c3.6-3.8,5.4-8.8,5.4-15.2c0-6.3-1.8-11.4-5.4-15.2c-3.6-3.8-8.2-5.7-13.8-5.7s-10.2,1.9-13.9,5.7&#10;&#9;&#9;c-3.6,3.8-5.5,8.8-5.5,15.2c0,6.3,1.8,11.4,5.5,15.2c3.6,3.8,8.3,5.7,13.9,5.7S2170.7,1478.2,2174.3,1474.4z" style="display: inline; fill: rgb(7, 107, 73);"/>
	<path class="st37" d="M2298.7,1428.8c5.7,5.6,8.6,13.9,8.6,24.9v43.1h-21.8v-39.8c0-6-1.3-10.4-3.9-13.4c-2.6-2.9-6.4-4.4-11.3-4.4&#10;&#9;&#9;c-5.5,0-9.9,1.7-13.2,5.1c-3.3,3.4-4.9,8.5-4.9,15.2v37.2h-21.8v-75.3h20.9v8.8c2.9-3.2,6.5-5.6,10.8-7.3c4.3-1.7,9-2.6,14.1-2.6&#10;&#9;&#9;C2285.5,1420.4,2293,1423.2,2298.7,1428.8z" style="display: inline; fill: rgb(7, 107, 73);"/>
</g></g></svg>